<svg xmlns="http://www.w3.org/2000/svg" viewBox="0 0 512 512">
  <rect width="512" height="512" rx="80" fill="#0f1117"/>
  <rect x="170" y="170" width="172" height="172" rx="20" fill="none" stroke="#00d4aa" stroke-width="24"/>
  <rect x="210" y="210" width="92" height="92" rx="10" fill="#00d4aa"/>
  <line x1="60" y1="172" x2="170" y2="172" stroke="#00d4aa" stroke-width="24" stroke-linecap="round"/>
  <line x1="60" y1="256" x2="170" y2="256" stroke="#00d4aa" stroke-width="24" stroke-linecap="round"/>
  <line x1="60" y1="340" x2="170" y2="340" stroke="#00d4aa" stroke-width="24" stroke-linecap="round"/>
  <line x1="342" y1="172" x2="452" y2="172" stroke="#00d4aa" stroke-width="24" stroke-linecap="round"/>
  <line x1="342" y1="256" x2="452" y2="256" stroke="#00d4aa" stroke-width="24" stroke-linecap="round"/>
  <line x1="342" y1="340" x2="452" y2="340" stroke="#00d4aa" stroke-width="24" stroke-linecap="round"/>
  <line x1="172" y1="60" x2="172" y2="170" stroke="#00d4aa" stroke-width="24" stroke-linecap="round"/>
  <line x1="256" y1="60" x2="256" y2="170" stroke="#00d4aa" stroke-width="24" stroke-linecap="round"/>
  <line x1="340" y1="60" x2="340" y2="170" stroke="#00d4aa" stroke-width="24" stroke-linecap="round"/>
  <line x1="172" y1="342" x2="172" y2="452" stroke="#00d4aa" stroke-width="24" stroke-linecap="round"/>
  <line x1="256" y1="342" x2="256" y2="452" stroke="#00d4aa" stroke-width="24" stroke-linecap="round"/>
  <line x1="340" y1="342" x2="340" y2="452" stroke="#00d4aa" stroke-width="24" stroke-linecap="round"/>
</svg>
